<svg version="1.1" id="Layer_1" xmlns="http://www.w3.org/2000/svg" xmlns:xlink="http://www.w3.org/1999/xlink" x="0px" y="0px"
	 width="100%" viewBox="0 0 1024 960" enable-background="new 0 0 1024 960" xml:space="preserve">
<path fill="#000000" opacity="1.000000" stroke="none" 
	d="
M529.198669,372.868835 
	C520.092224,365.973511 518.423523,356.883362 519.038879,346.405762 
	C520.386963,323.454834 520.692566,300.452240 518.514343,277.530975 
	C517.787964,269.888397 513.099731,263.680786 507.185242,259.250000 
	C488.855499,245.518448 475.649780,227.864273 465.715393,207.496063 
	C461.259674,198.360626 452.874969,194.263367 444.014862,190.990570 
	C435.431152,187.819870 426.658081,185.163940 418.057648,182.035950 
	C402.733551,176.462524 395.608307,163.233749 399.615540,148.002396 
	C402.237457,138.036667 409.723419,133.044830 418.827606,130.132248 
	C423.565613,128.616486 428.549225,127.851135 433.592407,127.847939 
	C450.246826,127.837387 466.856781,128.038315 483.503143,129.484940 
	C501.630310,131.060226 519.506775,133.735245 537.236877,137.623413 
	C578.889954,146.757797 617.050781,163.906494 652.680237,187.209290 
	C675.069519,201.852539 696.467834,217.645203 715.205872,236.787292 
	C750.487122,272.829346 777.482666,314.272705 796.312988,361.125031 
	C807.054565,387.851288 814.448425,415.461304 818.844971,443.808533 
	C823.845337,476.049164 823.714172,508.441376 819.974426,540.892761 
	C814.929138,584.672729 802.969971,626.467102 783.228577,665.736511 
	C762.503967,706.962097 735.966797,744.066528 701.228394,775.019653 
	C689.501038,785.469116 676.793518,794.587097 664.733948,804.559204 
	C660.112793,808.380493 654.807373,810.911682 648.806641,811.060669 
	C613.848633,811.928528 579.008972,815.738953 543.995850,815.224915 
	C538.468872,815.143799 533.027893,814.494995 527.629272,813.445923 
	C518.269592,811.627075 511.148834,807.128235 509.027313,797.096436 
	C508.236725,793.358032 506.203400,794.104553 503.912354,795.397522 
	C498.947571,798.199585 494.602570,801.842285 490.372101,805.612000 
	C486.069702,809.445862 481.136688,811.073914 475.353241,811.346985 
	C440.402252,812.997131 405.417084,813.196045 370.452087,814.175842 
	C359.175018,814.491882 351.511230,809.795044 346.422394,800.437744 
	C344.188141,796.329529 342.220764,796.338806 338.695526,798.593689 
	C329.360168,804.564880 319.671295,809.540894 308.051331,809.277466 
	C295.225525,808.986755 284.178680,802.363037 279.938202,791.933289 
	C274.937408,779.633484 277.594177,767.723572 287.432739,758.186951 
	C288.589478,757.065735 290.218475,756.250610 290.285828,754.310303 
	C289.844513,753.029358 288.638702,752.769775 287.631195,752.218811 
	C280.415161,748.273010 275.357239,742.508545 273.454224,734.416809 
	C272.703461,731.224365 271.093475,729.459595 267.971863,728.792542 
	C261.300415,727.366821 254.669693,725.736389 247.971771,724.453613 
	C243.461899,723.589783 238.987488,724.227173 234.777939,726.139832 
	C216.170837,734.594055 198.083954,717.879150 195.621384,702.502197 
	C193.105499,686.792358 198.454636,675.321838 212.731613,666.839355 
	C216.075958,664.852295 216.851410,663.360352 215.316635,659.473999 
	C210.763550,647.944763 213.892807,636.821350 218.657898,626.129211 
	C222.383942,617.768494 227.723267,610.600769 235.930374,605.969849 
	C238.835434,604.330688 240.767288,601.805847 241.464081,598.573059 
	C245.107529,581.669434 253.865555,567.826477 266.579956,556.343933 
	C270.438904,552.858887 272.892120,548.675537 273.722260,543.519836 
	C274.126740,541.007690 275.092010,538.562622 276.799011,536.764709 
	C285.645905,527.446777 283.935364,515.415833 285.295135,504.205688 
	C285.618896,501.536652 283.396057,500.255341 281.026123,499.377106 
	C273.262848,496.500305 265.765503,498.854004 258.499573,500.972809 
	C239.396591,506.543365 222.395142,502.618408 207.737564,489.737152 
	C196.490601,479.853210 189.217773,467.666443 192.802139,451.783844 
	C195.211502,441.107788 201.752747,433.251465 211.433273,428.271240 
	C215.102020,426.383881 216.832977,424.244598 216.887558,419.875397 
	C217.027344,408.689789 227.476456,397.425934 238.627960,395.733673 
	C246.374039,394.558136 249.212234,391.682465 248.859024,383.918549 
	C247.928452,363.463470 246.786255,343.015656 245.453415,322.582916 
	C245.132538,317.664001 245.234207,312.796021 246.763977,308.266418 
	C250.299057,297.799011 248.212753,286.638367 250.873581,276.248566 
	C256.390228,254.707748 268.788727,238.867157 291.123199,232.685471 
	C299.791992,230.286163 308.319092,232.322449 316.659363,234.871033 
	C319.963196,235.880600 322.976166,236.349213 326.235443,234.487457 
	C340.879791,226.122177 356.686523,224.521439 373.140289,226.612900 
	C409.649170,231.253510 438.590912,249.056900 461.060425,277.655640 
	C470.577057,289.768188 477.246368,303.676117 482.881348,317.967651 
	C485.623535,324.922424 489.295624,330.868896 494.643494,336.208221 
	C506.523102,348.068848 513.008545,363.023743 517.160828,379.043610 
	C520.799744,393.082947 523.568726,407.281952 523.950928,421.849274 
	C524.008301,424.035767 524.453979,426.224731 527.328125,425.403564 
	C536.056213,422.909912 544.986023,422.681244 553.592041,423.053253 
	C554.991150,421.485138 554.515259,420.106964 554.500488,418.816101 
	C554.429138,412.570740 555.914062,406.874237 560.625122,402.477142 
	C563.203857,400.070282 563.128845,398.020233 560.401855,395.924805 
	C560.270447,395.823792 560.112122,395.719513 560.044617,395.579102 
	C553.838562,382.670685 540.411682,379.578278 529.198669,372.868835 
M530.574402,243.933319 
	C536.993042,250.155884 542.579224,256.990967 544.973877,265.793121 
	C546.670532,272.029572 548.110474,278.385864 548.174988,284.893951 
	C548.303772,297.891296 548.113831,310.892426 548.305969,323.888306 
	C548.463196,334.519958 552.617065,342.576202 563.552673,345.923859 
	C565.302185,346.459442 567.598083,346.825500 567.795532,349.990112 
	C561.582336,352.344421 555.265747,348.033508 548.696777,349.812347 
	C550.464966,353.393921 553.732666,353.805298 556.591125,354.727264 
	C568.328857,358.513245 580.846191,359.225891 592.402832,363.729492 
	C603.182007,367.930084 612.375183,373.822052 615.510742,385.976318 
	C615.998657,387.867706 616.845398,389.819580 614.247253,392.158325 
	C605.153992,383.309448 595.646301,374.628876 580.591003,375.060638 
	C584.204773,379.870850 587.578247,383.745453 590.264954,388.048737 
	C599.637146,403.060303 603.619812,418.577271 593.488892,434.973053 
	C592.497803,436.577026 591.976501,439.191956 589.402222,438.635712 
	C587.015381,438.119995 587.184875,435.645294 586.769165,433.718140 
	C586.154236,430.868011 586.683411,427.566895 583.228455,424.616608 
	C583.291809,431.707855 583.986572,438.135559 581.233337,443.701904 
	C578.747314,448.727997 580.388123,451.819916 583.535217,455.641937 
	C591.936279,465.844727 597.916870,477.389038 599.043335,490.757324 
	C600.021484,502.365570 596.083374,512.757202 589.143799,521.977234 
	C587.135071,524.645996 587.135315,526.391174 589.896606,528.587097 
	C594.451599,532.209534 598.876953,536.044373 603.007080,540.142273 
	C614.600037,551.644775 628.185059,558.502319 644.731689,558.893494 
	C646.394653,558.932800 648.310547,558.901672 649.046936,560.728394 
	C649.832092,562.676086 648.119629,563.814148 646.922913,564.862549 
	C629.657410,579.988220 618.328125,578.599243 604.137695,569.159607 
	C597.089783,564.471252 597.090515,564.470154 595.689697,572.595703 
	C594.670837,578.505188 596.143982,580.227112 602.275635,580.999207 
	C609.085510,581.856812 615.919861,581.533325 622.741394,581.772522 
	C628.464722,581.973145 633.423523,583.922913 637.716248,587.754211 
	C641.346191,590.994019 644.425964,594.654602 647.285095,598.585693 
	C653.326416,606.891785 658.316406,616.129333 667.709534,621.522156 
	C670.764893,623.276367 670.176270,625.762634 668.155884,628.251404 
	C661.765442,636.123474 650.163635,638.428223 640.941528,633.664856 
	C639.449341,632.894104 638.250305,631.083984 635.530884,632.011780 
	C637.917236,636.725403 640.306946,641.233093 642.507446,645.831360 
	C649.460510,660.360901 647.864746,669.202881 636.394653,680.350647 
	C635.797363,680.931152 635.209229,681.522278 634.638306,682.128662 
	C630.467102,686.558899 630.799683,689.793762 636.250122,692.747314 
	C639.587830,694.555908 643.323608,695.641541 646.905518,696.985474 
	C659.569702,701.737000 669.455872,709.238953 672.608398,723.240417 
	C673.665649,727.936218 674.718018,732.630432 675.481995,737.408142 
	C676.501892,743.786621 675.630981,750.257690 676.563049,756.585449 
	C678.294861,756.624023 678.927429,755.519531 679.770203,754.784424 
	C701.779663,735.588623 720.040955,713.194214 736.224670,688.981262 
	C771.342834,636.439819 790.074219,578.543396 792.634338,515.491943 
	C793.825623,486.152344 792.148987,457.026123 786.386414,428.027863 
	C777.328247,382.445099 758.595947,340.944611 732.490784,303.202728 
	C699.993042,256.218567 658.741638,218.373367 606.367920,193.717773 
	C577.195740,179.984619 547.613098,167.750336 515.479431,162.665802 
	C493.218536,159.143417 470.822662,157.767319 448.345032,157.163727 
	C444.855316,157.070023 441.360901,157.150635 437.868652,157.150635 
	C447.769897,161.410934 457.621582,164.962738 466.935883,169.815857 
	C478.531281,175.857498 487.519592,184.317062 492.626434,196.655975 
	C497.192719,207.688705 503.452850,217.614532 512.348083,225.820221 
	C518.466003,231.463898 524.187927,237.536789 530.574402,243.933319 
M483.491577,435.042450 
	C487.617798,435.558685 489.398956,440.119751 493.329651,441.105377 
	C499.095367,423.424866 486.785248,367.141083 475.627838,359.850403 
	C473.355652,362.303955 473.388916,365.658844 472.285553,368.553101 
	C470.792389,372.470032 469.345642,376.415375 465.524170,378.732239 
	C463.983551,379.666199 462.240997,380.781189 460.433868,379.441528 
	C458.904907,378.308136 459.038574,376.590271 459.349609,374.869293 
	C460.059692,370.940369 460.574219,366.973480 461.371460,363.063477 
	C463.405426,353.088043 463.864380,343.298370 459.414612,333.713318 
	C452.806671,319.479553 445.932617,305.357147 436.032501,293.097198 
	C415.717438,267.940002 389.921204,253.851669 356.833618,255.111633 
	C343.167603,255.632050 332.120911,260.170593 326.720581,273.946075 
	C325.948730,275.914856 324.628906,277.769928 323.209564,279.363037 
	C320.097992,282.855560 317.377258,282.241669 316.005493,277.795074 
	C314.726837,273.650299 313.451630,269.515198 311.151367,265.802032 
	C307.279449,259.551971 301.959534,257.838806 295.323639,260.919434 
	C287.468536,264.566040 282.635376,270.951630 279.752533,278.941467 
	C279.247528,280.341125 278.823914,281.832428 280.108765,283.280609 
	C282.856689,283.878052 285.142914,282.277832 287.604980,281.423645 
	C289.065521,280.916931 290.650879,280.496826 291.630341,282.111816 
	C292.524719,283.586548 291.236023,284.574707 290.369629,285.536102 
	C289.478485,286.524963 288.480072,287.416199 287.554352,288.375031 
	C279.249146,296.977448 274.380707,306.645294 274.912659,319.225555 
	C275.679626,337.363586 276.618835,355.484283 277.992035,373.578583 
	C278.918182,385.782318 278.850677,397.587433 270.520721,407.735168 
	C269.284393,409.241211 268.320007,411.179749 267.862061,413.071228 
	C266.953857,416.822235 265.938568,420.775177 269.242340,423.988525 
	C271.065216,423.392639 271.020233,422.020386 271.321136,420.988037 
	C272.604034,416.586426 274.875488,412.739197 277.729340,409.219238 
	C279.700012,406.788605 282.301361,405.495148 285.188629,407.202057 
	C288.067261,408.903870 286.871552,411.632446 285.821381,413.883942 
	C284.133453,417.502838 282.175934,420.995728 280.342224,424.546967 
	C279.306885,426.552094 278.478424,428.704254 280.326324,430.572418 
	C285.424438,435.726471 290.647339,440.757080 295.522675,445.543732 
	C298.149536,444.582947 297.510773,441.417206 300.012787,441.642426 
	C301.822784,441.805359 302.411865,443.436218 302.779755,444.836517 
	C305.674805,455.855713 310.123932,465.899384 319.690002,472.899475 
	C320.377106,473.402313 320.491760,474.324280 320.090424,475.173187 
	C319.242676,476.501648 317.061340,475.760742 316.382111,477.771576 
	C317.219513,483.326874 324.110779,485.739105 324.726562,492.360809 
	C318.234131,493.112854 314.940643,496.901062 314.318420,503.173370 
	C313.365723,512.776978 311.925018,522.350159 311.423035,531.974426 
	C311.063782,538.861572 310.916840,545.351013 303.642151,548.863892 
	C303.091736,549.129700 302.704865,549.803894 302.327911,550.347839 
	C300.226440,553.380310 299.997864,555.837219 304.240356,557.186462 
	C308.203613,558.446899 312.073303,560.002747 316.040680,561.248718 
	C328.326141,565.107239 339.405365,561.200623 350.512787,556.355164 
	C349.545227,553.180481 347.402069,551.749512 345.588165,550.095520 
	C343.038849,547.770996 341.407501,544.939026 340.518646,541.652771 
	C340.196014,540.459778 340.330719,539.311646 341.455444,538.533325 
	C342.485321,537.820740 343.404816,538.284851 344.131622,539.020386 
	C348.941833,543.888794 355.339203,546.868469 359.742432,552.226013 
	C367.120728,561.203369 366.532593,564.248779 356.450104,569.778992 
	C354.189209,571.019043 351.856171,571.494873 349.338226,571.799988 
	C340.314850,572.893005 336.599396,577.319519 336.172028,586.234070 
	C335.326385,603.873718 336.215729,621.509399 336.025665,639.146545 
	C335.934692,647.592224 340.483795,651.641113 348.629578,650.557739 
	C353.727539,649.879639 358.847748,649.153320 363.799438,647.559204 
	C374.775299,644.025452 385.872711,641.417297 397.581024,641.681885 
	C403.520355,641.816162 409.575500,641.182495 414.586884,637.087158 
	C421.925873,631.089722 426.931122,623.179565 432.311859,615.592346 
	C433.070068,614.523193 433.075134,612.677429 432.924103,611.244263 
	C431.704498,599.672424 428.465149,588.706238 422.342285,578.749084 
	C414.769501,566.434082 404.267517,557.088806 392.169250,549.358948 
	C389.805237,547.848511 386.885986,546.585938 385.969116,543.468262 
	C387.972504,541.754395 389.437347,543.106567 390.850403,543.688232 
	C394.545776,545.209290 398.177917,546.884949 401.826538,548.518494 
	C416.085205,554.902527 430.078674,562.022522 445.827576,564.243713 
	C447.764740,564.516968 450.213806,565.720581 451.324493,563.545715 
	C453.800446,558.697510 457.695679,559.264526 462.014557,559.659302 
	C473.610809,560.719299 487.551361,551.078979 483.390625,536.628662 
	C481.286530,529.321045 479.824097,521.808716 477.312927,514.633423 
	C472.607788,501.189056 472.514557,487.418915 474.879150,473.719971 
	C477.011627,461.365814 483.175995,449.747314 481.649017,436.685211 
	C481.596161,436.232971 482.371643,435.683899 483.491577,435.042450 
M435.406677,723.951233 
	C430.453125,725.388123 425.509827,726.861877 420.540741,728.242920 
	C418.688538,728.757751 416.704346,730.136353 414.880493,728.486450 
	C412.991028,726.777100 416.157867,725.361755 415.380829,723.235107 
	C410.875641,724.909851 407.107758,727.506226 403.811646,730.817749 
	C402.881378,731.752319 401.955658,732.930847 402.681854,734.368774 
	C403.443298,735.876526 404.823944,735.564758 406.188629,735.291077 
	C408.043274,734.919128 410.393616,733.299683 411.641815,735.518311 
	C412.946045,737.836609 410.414246,739.397278 409.123993,740.978882 
	C407.339508,743.166199 405.341827,745.195740 403.307098,747.159912 
	C393.945557,756.196289 385.245605,765.836304 376.956909,775.854858 
	C374.962372,778.265686 373.103851,780.759277 372.467163,784.702209 
	C398.342957,785.733276 423.543152,782.963501 448.789429,781.892639 
	C445.007294,779.671936 440.073059,781.477905 436.938538,777.762573 
	C437.588074,776.151917 438.804321,775.985352 439.946747,775.953003 
	C450.772980,775.646362 461.646362,775.468994 472.274048,777.698792 
	C476.272064,778.537659 479.322357,778.362122 482.372864,775.736206 
	C483.746948,774.553406 485.434082,773.733582 486.982147,772.753723 
	C492.755463,769.099304 492.870911,768.577637 490.196899,762.346558 
	C485.469910,751.331665 480.439972,740.424377 477.603333,728.703369 
	C477.157715,726.862122 476.015320,724.878784 478.148102,723.211304 
	C480.605042,723.215881 481.449341,725.217896 482.559540,726.780518 
	C488.936523,735.756042 494.345612,745.333740 499.724609,754.914795 
	C501.677795,758.393677 503.485413,758.546936 506.176880,755.899536 
	C511.785095,750.383057 515.600098,743.807922 517.519043,736.237122 
	C519.202637,729.594788 521.458313,722.962830 520.491394,715.828674 
	C514.035339,716.839844 514.088196,716.844360 514.625854,710.586182 
	C514.802246,708.532654 515.274841,706.383423 513.903320,703.471863 
	C509.062958,712.209106 507.178040,721.991211 499.185181,728.648926 
	C498.229462,724.794922 498.243378,724.800110 499.228180,722.145081 
	C505.776733,704.490845 508.505249,686.453796 504.557861,667.777344 
	C503.705627,663.745056 502.634888,659.767090 499.800262,656.481262 
	C499.850586,662.680481 500.231934,668.574646 496.654724,673.999023 
	C489.329834,685.106262 482.968872,696.894531 473.300873,706.303833 
	C471.460907,708.094482 470.327728,710.264832 469.641388,712.732178 
	C466.899200,722.590149 462.633270,731.788513 457.282654,740.476196 
	C451.174286,750.394165 443.518433,758.870911 433.442749,764.914307 
	C431.827972,765.882874 429.585205,767.347351 428.007446,765.362061 
	C426.502808,763.468689 428.636810,762.036133 429.841644,760.795593 
	C435.778992,754.682312 440.743958,747.771423 446.084381,741.169617 
	C450.295319,735.964172 453.700439,730.244019 456.610840,724.228088 
	C457.327271,722.747192 458.402832,721.067932 457.243195,719.534058 
	C455.951416,717.825256 454.155243,719.063843 452.622192,719.451233 
	C447.137878,720.837524 441.673370,722.301941 435.406677,723.951233 
M629.113525,729.516907 
	C630.905334,732.711243 632.783630,735.860596 634.472717,739.108337 
	C639.320007,748.429260 643.441162,758.057556 646.331360,768.177368 
	C646.824463,769.903931 647.721863,771.955200 646.124817,773.365295 
	C644.352051,774.930542 642.766785,773.255005 641.243286,772.321716 
	C635.693970,768.922241 629.522888,767.672363 623.152771,767.316833 
	C618.999756,767.085144 614.828735,767.118774 610.666138,767.132996 
	C606.773132,767.146301 605.775208,765.372925 606.634033,761.700256 
	C607.280823,758.934570 609.602356,757.497559 611.243164,755.223328 
	C606.236145,750.383423 600.433167,747.058350 595.146057,743.073120 
	C583.301147,734.145081 571.275208,725.490845 557.485352,719.697327 
	C552.033325,717.406860 550.653809,718.271973 551.335449,723.991394 
	C552.700989,735.450073 552.092224,746.944275 552.283630,758.423096 
	C552.388306,764.702881 552.302307,770.985840 552.302307,777.216309 
	C554.513245,778.388489 556.317200,777.112549 558.171326,776.593384 
	C568.903320,773.588379 579.578186,770.299988 590.830322,769.858582 
	C593.585815,769.750488 596.471558,769.667297 598.252808,773.286682 
	C587.772461,777.452393 576.977966,779.786987 566.451538,784.705933 
	C569.317566,786.268066 571.506958,785.773926 573.576721,785.689270 
	C595.684326,784.785217 617.732727,782.608826 639.885986,782.645996 
	C643.455078,782.651978 646.815430,781.738953 649.695557,779.491882 
	C656.127075,774.474182 662.567383,769.467651 668.963318,764.404907 
	C670.543396,763.154236 671.858765,761.807007 671.279114,759.345825 
	C669.334534,751.089783 668.394226,742.493103 665.541016,734.577759 
	C660.230957,719.846985 653.121887,706.254822 635.031433,703.881592 
	C633.249023,703.647827 631.505676,702.885864 629.819641,702.186890 
	C621.125916,698.583313 616.724426,691.749329 616.818542,682.329163 
	C616.850647,679.120911 617.553650,676.056946 618.379578,673.003052 
	C620.217529,666.207642 617.453735,660.800415 613.798096,655.863281 
	C612.115417,655.691528 611.408081,656.451538 610.685242,657.124146 
	C603.199219,664.089844 602.752014,673.075745 604.490845,682.088745 
	C607.075012,695.483093 613.497009,706.715942 625.624512,713.959534 
	C628.977783,715.962402 630.671387,718.529053 628.005005,722.110657 
	C626.023621,724.772095 627.450684,726.765808 629.113525,729.516907 
M322.068451,674.599365 
	C333.443298,675.293945 344.688232,674.753357 355.677521,671.343201 
	C357.592865,670.748779 359.786957,669.592651 361.537903,671.853516 
	C358.184540,678.709473 358.036530,678.802917 351.426422,679.537964 
	C350.614624,679.628174 349.796539,679.922791 349.046204,680.264954 
	C341.854126,683.544189 333.973877,684.252136 326.464783,686.341675 
	C324.621796,686.854553 322.766052,687.013916 321.346924,685.449829 
	C319.417694,683.323608 316.798248,682.767761 314.229218,682.113220 
	C309.034119,680.789551 304.559174,677.953247 301.359497,673.941467 
	C297.710999,669.366821 294.567169,672.459961 291.920654,674.114258 
	C288.134338,676.481079 291.880310,678.801819 293.192841,680.577698 
	C298.661713,687.976929 305.662628,693.964050 312.104706,700.470581 
	C313.845398,702.228638 316.547302,703.601746 316.310547,706.712769 
	C314.083038,708.629333 311.957550,707.422241 309.989929,706.887329 
	C286.534363,700.510803 262.808716,695.342285 238.928452,690.856750 
	C235.561371,690.224304 232.177353,689.758972 228.569458,690.852478 
	C228.973297,691.366089 229.047913,691.563965 229.157196,691.585449 
	C265.683472,698.766357 301.346283,710.488220 338.869537,712.450806 
	C341.121063,712.568542 344.216827,712.516418 344.271698,715.619446 
	C344.333984,719.140747 340.919647,718.820007 338.619354,719.038330 
	C332.658417,719.604065 326.639191,719.616150 320.698883,720.319275 
	C315.803070,720.898804 310.481262,720.305237 306.385498,724.222229 
	C320.396301,722.691589 334.533905,723.071045 348.400940,720.364136 
	C352.646484,719.535339 356.933167,718.904663 361.215820,718.285583 
	C362.556396,718.091858 364.005005,718.274475 364.491058,719.867676 
	C364.920044,721.273926 363.721771,721.886536 362.836945,722.637512 
	C361.371002,723.881775 359.192352,724.242981 358.192322,726.282898 
	C360.311462,727.236023 361.823822,725.881287 363.387909,725.170837 
	C366.570221,723.725342 369.634766,722.020203 372.819244,720.580017 
	C374.365662,719.880798 376.367889,718.226501 377.652588,720.445740 
	C378.801910,722.431091 376.691132,723.667419 375.428467,724.925354 
	C375.075775,725.276733 374.680145,725.588623 374.284393,725.892822 
	C358.302917,738.175903 342.993439,751.280334 327.620209,764.299622 
	C323.396515,767.876587 318.413788,770.667664 314.777954,775.170044 
	C317.492462,777.219482 319.837097,777.100342 322.222839,775.815552 
	C343.527100,764.342041 362.756622,750.167908 378.210907,731.408936 
	C382.590698,726.092529 385.631714,719.685364 389.414246,713.861206 
	C392.728485,708.758057 395.560211,703.276855 400.580750,699.461548 
	C403.491699,697.249390 403.645050,694.648010 401.361420,691.822693 
	C398.718384,692.261597 397.655731,694.293701 396.262512,695.867554 
	C391.806305,700.901489 386.572845,704.994934 380.917145,708.559937 
	C379.402191,709.514893 377.614532,710.684021 375.881714,709.142700 
	C374.221375,707.665894 374.866638,705.688660 375.620117,704.036865 
	C376.860626,701.317505 378.225128,698.634094 379.777039,696.081177 
	C385.658905,686.405518 389.449677,676.009644 390.735687,664.749512 
	C391.484802,658.190247 389.505066,656.330444 383.144531,657.928711 
	C375.076904,659.955872 367.113281,662.393616 359.061615,664.488464 
	C349.229370,667.046509 340.260559,665.422485 332.457214,658.585388 
	C331.116638,657.410767 329.844421,655.951599 328.038452,656.042297 
	C321.737549,663.644531 311.384705,663.377197 304.060333,668.992004 
	C309.450928,672.383362 315.317261,673.421509 322.068451,674.599365 
M250.443100,630.357300 
	C249.604553,630.875366 248.586914,631.234192 247.959351,631.939941 
	C245.594437,634.599304 243.005646,637.777283 244.657928,641.262573 
	C246.320190,644.768860 250.061234,642.661438 252.751617,642.112488 
	C260.802612,640.469604 268.618408,640.915710 276.306915,643.756775 
	C284.465088,646.771240 292.888611,648.767151 301.534607,649.418701 
	C314.365662,650.385498 321.980408,645.989441 323.365936,633.926208 
	C324.662994,622.633057 323.668671,611.314636 321.606903,600.195557 
	C320.075897,591.938904 314.390717,584.962830 313.770782,576.234131 
	C313.553253,573.171753 310.485138,571.704956 307.535858,571.322815 
	C303.739288,570.830933 299.921936,570.813110 296.153595,571.890503 
	C280.072937,576.488098 268.288239,594.626221 268.994354,613.469482 
	C269.138000,617.302307 270.491364,619.749390 274.235474,620.915771 
	C278.550934,622.260315 281.739777,625.147644 284.091522,628.932678 
	C285.016998,630.422241 286.742767,631.978577 285.620972,633.867981 
	C284.239441,636.195007 282.063385,634.726807 280.209808,634.366882 
	C270.630005,632.506348 261.326691,628.742493 250.443100,630.357300 
M499.497955,571.830750 
	C493.859039,575.290527 492.038361,580.607544 494.566254,586.232971 
	C496.587860,590.731689 501.427765,592.650513 506.307617,590.887756 
	C511.810425,588.900024 514.151489,584.107483 512.456665,577.654480 
	C511.850220,575.345642 512.771484,573.647644 513.960388,572.125183 
	C528.540344,553.453674 540.583496,532.387329 563.041870,521.206055 
	C568.873840,518.302490 572.679626,513.071411 574.454468,506.639679 
	C576.818237,498.073517 578.029846,489.321167 577.613586,480.456329 
	C577.184509,471.320526 574.727844,462.714539 566.413574,457.624329 
	C553.216980,449.545074 539.445129,449.556061 526.077820,457.128876 
	C513.390991,464.316162 508.975372,476.483521 508.008484,490.256989 
	C507.883453,492.038361 507.615967,494.333710 510.116974,495.148071 
	C510.512726,494.785461 510.845856,494.607544 510.977844,494.332977 
	C511.261658,493.742462 511.588135,493.114746 511.642761,492.480347 
	C512.610840,481.241058 519.228882,473.284912 526.761169,465.696472 
	C530.592529,461.836609 534.279785,458.954041 540.174316,460.646362 
	C542.148438,461.213043 544.478821,460.687469 546.627441,460.472321 
	C557.161133,459.417542 564.579163,464.919037 571.199341,472.089661 
	C571.405762,472.313171 571.139954,472.972565 571.110229,473.269226 
	C569.542236,474.417603 568.239807,471.884155 566.579529,473.494720 
	C570.115417,483.614594 571.773987,493.951721 568.062561,504.583832 
	C564.348511,515.223511 556.166504,521.799255 547.681824,529.443115 
	C546.528137,522.731262 547.499146,518.718994 552.279236,515.345398 
	C559.999512,509.896729 561.649719,502.581207 560.879456,493.902557 
	C560.180176,486.023407 556.204468,481.989258 548.052002,481.473358 
	C540.780396,481.013245 535.484436,485.011444 533.864319,492.073883 
	C533.028687,495.716461 533.285645,499.352325 533.590210,503.010742 
	C534.377258,512.467896 535.272705,521.918762 535.868347,531.388306 
	C536.468994,540.938477 530.965088,546.800232 521.434326,547.463379 
	C515.825745,547.853638 511.437103,545.630920 507.524933,541.912292 
	C506.287018,540.735535 505.585236,538.627380 502.535614,539.181946 
	C502.778290,543.106628 499.120880,546.736511 501.560638,551.185242 
	C507.778351,549.630493 508.963715,550.819641 507.803314,557.223572 
	C507.328979,559.841248 506.469330,562.426025 506.316864,565.056580 
	C506.082550,569.099915 504.141418,571.163330 499.497955,571.830750 
M498.994354,627.477173 
	C499.802490,628.317139 500.599945,629.167664 501.420380,629.995422 
	C507.835144,636.467224 515.424011,638.202454 523.847229,634.913635 
	C531.923462,631.760254 536.240540,624.553650 535.986938,614.995544 
	C535.693848,603.947754 531.585876,594.257446 524.710999,585.709351 
	C523.768921,584.538025 522.785339,583.057861 520.712280,583.179077 
	C521.201660,586.224915 523.060059,588.244019 524.301636,590.560547 
	C528.018616,597.495789 531.142639,604.515808 531.387512,612.666138 
	C531.772034,625.465637 520.400574,629.306091 511.428955,624.969910 
	C505.191040,621.955017 500.900330,616.979187 497.246124,611.287598 
	C495.888947,609.173767 495.075897,606.412964 491.329041,605.659668 
	C490.440887,614.189636 494.089874,620.686096 498.994354,627.477173 
M463.952881,599.838440 
	C460.197754,596.411560 455.950836,599.614746 451.935822,598.987061 
	C445.987701,598.057068 441.521576,600.835327 441.159943,604.998535 
	C440.637207,611.016235 444.780823,616.506104 450.441589,617.295776 
	C463.541504,619.123169 464.972687,617.864197 464.877686,604.463501 
	C464.868378,603.150330 464.574249,601.839111 463.952881,599.838440 
M545.743896,755.431458 
	C545.729431,744.280884 545.702881,733.131653 542.883606,721.890747 
	C540.975281,723.021729 541.389771,724.132019 541.439270,725.027283 
	C542.440918,743.138611 542.743835,761.200500 538.485901,779.033325 
	C538.053223,780.845459 537.475708,783.321594 540.423828,783.806519 
	C543.432556,784.301331 544.119812,781.978516 544.284119,779.758362 
	C544.859802,771.979919 545.269165,764.189148 545.743896,755.431458 
M268.446136,452.076721 
	C277.339691,462.783142 289.475006,471.085602 294.569580,469.683838 
	C292.476013,463.091919 286.862946,460.393066 281.381073,457.760864 
	C275.117828,454.753479 269.660492,450.851654 265.406830,445.326874 
	C261.148102,439.795593 256.926727,434.234375 252.586395,428.767731 
	C251.133942,426.938385 249.646530,424.919312 245.681091,424.415680 
	C251.746643,435.604126 261.178955,442.522491 268.446136,452.076721 
M228.353409,469.913483 
	C230.000702,465.891266 226.881729,462.144409 227.687149,458.115997 
	C227.994843,456.576996 228.023987,454.538666 225.647629,454.279114 
	C223.406570,454.034302 222.414810,455.590759 221.772446,457.444092 
	C220.315460,461.647583 222.803650,466.754211 228.353409,469.913483 
M245.939316,465.592682 
	C243.382187,465.035492 243.162460,466.595428 243.303986,468.494324 
	C243.659164,473.259766 247.774277,474.277588 253.501373,470.869904 
	C251.156326,469.172668 248.873642,467.520569 245.939316,465.592682 
z"/>
<path fill="#000000" opacity="1.000000" stroke="none" 
	d="
M890.330933,535.290588 
	C890.186157,540.593018 890.112854,545.424438 889.905396,550.250183 
	C889.795532,552.804810 888.851685,554.890808 885.829285,554.920166 
	C883.064026,554.946960 882.015076,553.088013 881.916626,550.693970 
	C881.796692,547.775940 880.104919,547.100464 877.616577,547.125671 
	C875.619934,547.145996 873.617065,547.081543 871.625488,546.936890 
	C869.343201,546.771179 867.721497,545.640991 867.854492,543.185120 
	C868.070435,539.197021 866.734009,535.076721 870.509827,531.536621 
	C873.054871,529.150391 871.163025,526.766602 868.079590,526.408386 
	C864.623108,526.006775 861.095520,526.166992 857.599182,526.180481 
	C855.716248,526.187744 854.429260,527.081116 854.208252,529.111694 
	C854.001465,531.010498 854.855835,532.188232 856.518311,533.103821 
	C860.673645,535.392029 862.541565,541.369446 860.595886,545.551636 
	C859.862488,547.127991 858.573181,547.730103 857.003174,547.801941 
	C851.671143,548.046448 846.347839,547.951721 841.038879,547.299805 
	C838.831970,547.028870 837.789001,545.838379 837.788879,543.662109 
	C837.788757,541.663208 837.826477,539.663879 837.798767,537.665405 
	C837.753723,534.415405 839.178894,532.545593 842.576965,532.757568 
	C846.367432,532.993896 847.268066,531.181946 846.393921,527.842224 
	C845.511047,524.469116 846.401001,521.197571 847.318176,518.015930 
	C848.485229,513.967468 851.248230,511.329620 855.552795,511.137787 
	C860.030762,510.938171 864.568054,510.894226 869.012085,511.387756 
	C875.363159,512.093079 877.886414,515.125305 878.288757,521.668823 
	C878.441895,524.159424 878.336426,526.664856 878.406433,529.161926 
	C878.448608,530.664612 879.203857,531.809387 880.735168,531.952698 
	C882.618896,532.128967 882.824341,530.618469 882.847351,529.252319 
	C882.987732,520.923706 883.042664,512.593567 883.217346,504.265869 
	C883.269958,501.757141 881.902832,501.091797 879.783569,501.100861 
	C870.954407,501.138641 862.125183,501.173950 853.296082,501.223907 
	C851.544312,501.233826 849.934753,501.571259 849.328003,503.542419 
	C848.497986,506.238403 846.429626,506.514099 844.131165,506.125397 
	C841.549500,505.688812 841.422241,503.529297 841.168274,501.532288 
	C839.570129,488.967834 840.041626,488.243011 852.043274,485.046997 
	C851.672791,480.833588 850.531433,476.649536 850.788208,472.312012 
	C851.229126,464.865692 854.486084,461.382202 861.910278,460.873871 
	C866.725159,460.544159 871.540100,460.176849 876.361328,459.991547 
	C879.927917,459.854462 881.712708,458.003204 881.318542,454.637878 
	C880.609497,448.585114 878.916016,446.850494 874.719238,447.774750 
	C868.280212,449.192749 862.758606,448.586761 859.139832,440.829529 
	C857.660156,447.027832 854.262756,449.628540 849.177551,450.310669 
	C846.697693,450.643341 846.147461,452.570984 846.238098,454.790253 
	C846.339478,457.270966 844.874390,458.460510 842.633972,458.750458 
	C840.111633,459.076874 838.942383,457.474670 838.579590,455.299103 
	C837.923523,451.364929 837.143066,447.416595 836.952698,443.448395 
	C836.712708,438.442841 839.558655,435.767090 844.486145,435.328461 
	C848.934509,434.932495 852.882507,434.309235 851.972961,428.113037 
	C851.614502,425.671143 853.902588,424.868866 855.993469,424.550476 
	C858.002625,424.244476 859.389465,424.863708 860.353455,426.921173 
	C863.611267,433.874664 867.045349,435.155426 874.417725,432.616119 
	C875.950684,432.088135 876.621765,431.255188 876.322876,429.667847 
	C875.460693,425.089386 874.583984,420.513641 873.741516,415.931580 
	C873.304504,413.554840 871.722534,412.972351 869.678528,413.472809 
	C860.785339,415.650452 851.914429,417.919037 843.026489,420.118378 
	C841.099731,420.595123 840.340271,421.784241 840.241394,423.698944 
	C840.117249,426.102570 838.214294,426.573883 836.347046,426.748718 
	C834.132446,426.956116 833.005920,425.621826 832.584229,423.571106 
	C831.746277,419.496063 830.825012,415.436066 830.089844,411.342590 
	C829.479370,407.943176 832.000061,407.073364 834.514221,406.451050 
	C844.361450,404.013550 854.216125,401.604919 864.083984,399.252563 
	C868.133972,398.287109 870.751282,394.138550 869.570007,390.310547 
	C867.486267,383.557556 865.310547,382.587463 858.306335,385.028076 
	C851.860718,387.274078 845.367920,389.384888 838.892578,391.545135 
	C836.266418,392.421234 833.912964,393.354736 834.142517,396.928955 
	C834.300415,399.387054 832.341736,400.405853 830.244812,400.696655 
	C827.941650,401.016113 827.063660,399.322906 826.520203,397.444946 
	C826.104004,396.006897 825.750549,394.550659 825.329773,393.114014 
	C824.395142,389.922668 822.680298,386.740234 822.672974,383.551056 
	C822.663330,379.322510 828.323914,380.890137 830.156860,377.771698 
	C828.419922,373.246307 825.778503,368.962830 825.676270,363.757233 
	C825.570435,358.364441 827.885864,354.714630 832.729370,352.861816 
	C837.698364,350.960907 842.817078,349.437561 847.910889,347.882019 
	C850.390991,347.124634 852.719788,346.549744 852.812500,343.216766 
	C852.865051,341.326752 854.268555,340.268036 856.112671,340.037781 
	C858.325195,339.761536 859.537842,341.092834 860.172058,342.981110 
	C864.888367,357.023254 869.594055,371.069122 874.243530,385.133514 
	C875.085571,387.680634 872.574585,391.222931 877.150391,392.953064 
	C879.420166,392.390594 881.889343,390.187622 885.086914,390.953613 
	C888.387268,391.744263 891.036194,393.479462 892.218628,396.637909 
	C895.511230,405.433197 897.655151,414.497864 896.899414,423.974792 
	C896.561401,428.213745 894.748657,432.036652 891.971558,435.257965 
	C889.503967,438.120239 886.990112,437.703583 886.257751,434.100708 
	C885.325378,429.514221 883.538025,424.799286 887.343018,420.313660 
	C889.761169,417.463013 889.279114,413.688354 888.651001,410.210815 
	C888.223999,407.847168 886.513733,406.996307 884.183044,407.301208 
	C881.931641,407.595764 880.884827,409.034363 881.156006,411.111359 
	C881.844604,416.387024 882.667542,421.648224 883.570312,426.892212 
	C884.869202,434.437134 886.841736,441.911102 887.533264,449.505798 
	C888.817749,463.612915 890.671021,477.694550 890.908875,491.876801 
	C891.148987,506.190826 891.869385,520.522156 890.330933,535.290588 
M844.685547,364.262573 
	C842.814819,364.940826 840.928711,365.579834 839.077209,366.306915 
	C836.570618,367.291199 834.600769,368.543671 835.817444,371.849548 
	C837.060486,375.227264 839.412659,375.316162 842.245605,374.358734 
	C847.115417,372.712952 851.939514,370.914917 856.862976,369.450409 
	C859.887634,368.550690 860.871399,367.208008 859.727478,364.060486 
	C858.616882,361.004547 857.196106,359.563599 853.849060,360.984039 
	C851.104614,362.148743 848.248657,363.050659 844.685547,364.262573 
M879.254333,484.938141 
	C883.652100,483.371307 884.139893,479.246155 880.206421,474.405731 
	C876.965698,477.288055 873.921997,480.219727 871.948425,484.296631 
	C874.474304,485.361420 876.464478,484.986725 879.254333,484.938141 
M868.627075,476.773010 
	C865.907593,473.888672 862.425293,474.670074 860.288818,476.602295 
	C858.053894,478.623505 858.425171,481.913727 860.926697,484.555969 
	C864.434509,483.001434 865.855225,479.608917 868.627075,476.773010 
z"/>
<path fill="#000000" opacity="1.000000" stroke="none" 
	d="
M799.003662,763.615967 
	C800.588501,766.308228 802.139160,765.507263 803.310364,763.707947 
	C807.851746,756.730896 812.275696,749.677368 816.760498,742.663391 
	C817.963745,740.781616 817.151978,739.553589 815.531860,738.543518 
	C807.900940,733.785889 800.263916,729.038086 792.642273,724.265747 
	C791.051392,723.269592 789.579590,723.240662 788.018921,724.363586 
	C786.109497,725.737488 784.273804,725.489075 782.645874,723.810242 
	C780.872070,721.980835 781.594116,720.126465 782.702637,718.346436 
	C791.916626,703.550232 788.154236,704.291199 802.943054,712.885559 
	C809.273682,716.564514 815.434998,720.543457 821.579773,724.530151 
	C824.560242,726.463989 826.506836,726.437439 828.995361,723.337219 
	C833.676453,717.505371 833.313232,713.021545 826.869324,709.825745 
	C820.307922,706.571594 813.614258,703.584656 806.991943,700.452271 
	C805.110474,699.562256 803.378479,698.859375 801.521301,700.660461 
	C799.734375,702.393311 797.842896,701.808228 796.188416,700.298462 
	C794.535706,698.790527 794.858704,697.076416 795.774048,695.295593 
	C797.296936,692.332886 798.924255,689.408997 800.213074,686.344849 
	C801.769897,682.643616 803.996399,681.496399 807.607971,683.613831 
	C809.026428,684.445435 810.498169,685.264221 812.478149,684.631897 
	C813.194641,680.570984 813.546143,676.408203 815.654846,672.703369 
	C818.663513,667.417175 821.941956,666.003235 827.652893,667.985962 
	C831.263733,669.239563 834.879333,670.552429 838.323364,672.194214 
	C842.473572,674.172729 843.949524,677.802734 843.017212,682.193298 
	C842.254456,685.785400 840.698608,689.143494 838.854492,692.323792 
	C837.783508,694.170776 836.220520,695.571533 833.932800,694.618042 
	C831.740723,693.704529 831.875916,691.845276 832.690918,689.972473 
	C833.631653,687.810791 832.883179,686.517761 830.718994,685.772827 
	C828.519836,685.015869 826.405701,683.990417 824.178345,683.344116 
	C822.487183,682.853394 820.855164,683.070374 820.149597,685.172302 
	C819.543091,686.979004 818.913452,688.764099 821.006226,690.026917 
	C826.581665,693.391113 832.572754,695.909912 838.554443,698.420044 
	C840.548035,699.256653 841.490356,697.537720 842.445618,696.130981 
	C846.919922,689.541565 848.527832,681.757385 851.452026,674.524109 
	C852.180969,672.721069 851.489319,671.095032 849.564392,670.541321 
	C843.159180,668.698730 837.417053,666.299744 838.246521,657.098572 
	C833.546265,660.564087 829.604858,660.234070 825.553772,658.621216 
	C822.864990,657.550781 821.062500,658.674805 820.063110,661.288879 
	C819.528320,662.687866 819.010620,664.096130 818.404785,665.464661 
	C817.575623,667.337769 816.218445,668.525696 814.075073,667.781982 
	C812.006531,667.064331 810.427856,665.574707 811.243835,663.242004 
	C813.220215,657.592651 815.107361,651.863403 817.712891,646.497742 
	C819.901489,641.990601 824.258606,642.457275 828.235168,643.895142 
	C832.089294,645.288757 835.441467,647.038391 838.603333,642.217468 
	C840.237000,639.726501 845.340942,641.525757 844.945435,644.441467 
	C843.606689,654.310120 850.653198,655.311707 857.848389,657.309937 
	C859.346008,651.779358 863.306580,647.209167 863.631836,641.058044 
	C863.777283,638.308044 862.248474,637.452698 860.265320,636.938599 
	C851.726685,634.725037 843.159180,632.623047 834.601807,630.481873 
	C832.723999,630.012024 831.425537,630.731079 830.401978,632.332825 
	C829.227234,634.170959 827.494080,634.459045 825.606079,633.549622 
	C823.792603,632.676086 823.504944,630.965210 823.876770,629.270569 
	C824.838806,624.886047 825.775146,620.478271 827.103516,616.198364 
	C827.906982,613.609802 830.245239,613.652405 832.546875,614.218567 
	C837.864380,615.526489 843.194580,616.783081 848.280029,618.002991 
	C849.962830,617.335327 849.620056,615.956543 849.969727,614.910339 
	C850.810059,612.396179 852.748962,611.625732 855.095581,612.043640 
	C857.314575,612.438782 858.401855,614.013794 858.588440,616.300354 
	C859.026367,621.667480 864.915100,624.653503 869.401184,621.637878 
	C871.203186,620.426514 872.745178,619.326172 874.761597,620.777588 
	C876.785950,622.234680 876.335571,624.318665 875.738037,626.245361 
	C873.392090,633.810181 870.951965,641.391052 868.599182,648.899536 
	C864.178955,663.006470 859.702454,677.098877 853.809937,690.585754 
	C848.734741,702.201843 842.478210,713.327942 836.056946,724.365051 
	C831.352417,732.451233 827.133545,740.949280 822.156860,748.926636 
	C814.843384,760.649902 807.361206,772.296082 798.908386,783.246155 
	C792.528076,791.511475 785.817505,799.523499 779.174683,807.582947 
	C777.939819,809.081116 776.650635,810.864807 774.366150,810.780518 
	C771.055420,810.658386 769.405151,806.912964 771.871277,804.207397 
	C774.852112,800.937195 773.897339,798.924866 770.996704,796.503235 
	C764.988525,791.487427 759.126648,786.295898 753.222229,781.156372 
	C751.595764,779.740662 749.979492,778.916443 747.841675,780.235840 
	C745.488770,781.687988 743.677673,780.472900 742.212402,778.674316 
	C740.538879,776.620239 741.838074,774.962402 743.153381,773.368408 
	C745.273193,770.799377 747.499390,768.309631 749.485291,765.640991 
	C751.805603,762.523132 754.044312,762.453552 756.956909,764.956787 
	C764.659302,771.576721 772.464600,778.078979 780.317078,784.520630 
	C781.966858,785.874084 783.461487,788.652588 786.190918,786.864136 
	C789.276001,784.842407 791.824829,782.091492 792.568420,778.350464 
	C792.932434,776.518860 790.992493,775.593445 789.666138,774.612976 
	C783.067749,769.735474 782.880920,768.187683 788.435486,762.234131 
	C789.554016,761.035217 791.010681,760.157227 792.269592,759.082275 
	C793.654785,757.899597 795.515381,756.674805 793.751343,754.618469 
	C792.067383,752.655457 790.464722,753.789795 789.162903,755.315186 
	C787.542358,757.213989 786.025696,759.201294 784.414612,761.108459 
	C779.930725,766.416443 776.286072,767.137817 771.028809,763.802795 
	C763.142090,758.799622 760.954529,754.126282 763.992188,747.946960 
	C766.718018,742.401855 770.195801,737.296753 774.285583,732.645752 
	C775.607300,731.142639 777.098877,729.704285 779.108154,729.210815 
	C782.638794,728.343689 785.288391,730.244812 787.509033,732.544250 
	C789.974182,735.096924 788.034973,737.575867 786.637817,739.763062 
	C785.086548,742.191650 783.788635,745.420166 779.745728,743.718323 
	C777.559509,742.798035 775.704163,743.311279 774.803162,745.565491 
	C773.833923,747.990540 775.722351,749.226379 777.347778,750.383484 
	C779.051636,751.596497 780.807495,753.531982 782.959229,751.145691 
	C785.074097,748.800415 786.955078,746.240540 789.115173,743.940613 
	C793.212646,739.577698 797.166138,739.076843 801.456970,742.177612 
	C805.656616,745.212524 806.315979,749.148499 803.530090,754.492615 
	C801.997864,757.431702 800.478516,760.377502 799.003662,763.615967 
z"/>
<path fill="#000000" opacity="1.000000" stroke="none" 
	d="
M745.155334,179.849625 
	C750.543945,178.614960 755.088623,181.258591 758.397705,186.649506 
	C761.164673,191.157181 759.600708,194.504837 756.235962,197.671021 
	C754.658752,199.155182 753.124695,200.686768 751.607117,202.232300 
	C747.282959,206.636383 747.415588,206.905289 751.752502,211.334518 
	C754.021606,213.651871 755.810425,213.803101 757.995117,211.454681 
	C759.353455,209.994614 760.826050,208.625900 762.352905,207.341675 
	C763.981873,205.971542 764.661377,204.693634 763.138123,202.711777 
	C761.476013,200.549316 762.306030,198.663544 764.330872,197.153717 
	C766.429077,195.589218 768.200256,196.501160 769.593628,198.111206 
	C775.450684,204.879288 781.491089,211.469223 787.169495,218.421661 
	C794.656372,227.588257 801.680176,237.049896 808.613220,246.596756 
	C813.307129,253.060303 818.235962,259.504456 821.814331,266.586548 
	C825.813782,274.502136 831.251343,281.509857 835.002747,289.554901 
	C838.799988,297.698181 843.252441,305.535156 847.384155,313.523743 
	C848.544006,315.766174 849.967224,318.147919 846.745483,319.942200 
	C843.458374,321.772919 842.137878,319.299622 841.115356,316.998993 
	C839.846619,314.144653 838.021667,314.464142 835.861694,315.602753 
	C828.052185,319.719513 820.259460,323.868317 812.436096,327.958679 
	C810.397644,329.024445 809.500793,330.323669 810.221924,332.767853 
	C810.880066,334.998444 809.119202,336.061127 807.369446,336.821564 
	C805.523682,337.623779 803.981323,336.897339 803.102234,335.300995 
	C800.773254,331.072266 798.517029,326.796631 796.423218,322.447571 
	C795.037415,319.569183 797.458679,318.705353 799.375305,317.699921 
	C805.274109,314.605408 811.199341,311.560181 817.063904,308.402130 
	C819.027466,307.344757 821.658875,306.521790 819.667969,303.246857 
	C818.037415,300.564697 816.448059,298.624969 812.961670,300.664520 
	C809.370544,302.765320 805.622375,304.597809 801.940918,306.543976 
	C800.402771,307.357117 799.486633,308.451324 799.032166,310.295227 
	C797.992432,314.513641 794.031189,315.295074 790.860168,312.090027 
	C784.873230,306.038757 785.969666,298.324524 793.425781,294.267609 
	C797.669189,291.958771 801.933899,289.687897 806.217529,287.454620 
	C812.716919,284.066162 817.168823,285.150757 821.179504,291.249603 
	C822.914001,293.887146 824.312683,296.744019 825.905579,299.476959 
	C826.812744,301.033386 827.979187,302.181061 829.966370,301.197968 
	C832.176392,300.104614 831.298706,298.593109 830.557068,297.007782 
	C826.966614,289.332916 822.488647,282.122681 819.128540,274.303955 
	C816.785217,268.851135 813.756226,268.193359 808.950989,271.788239 
	C803.843994,275.608856 799.049988,275.886719 793.061462,270.745667 
	C794.141541,277.453003 791.501709,281.027435 787.646179,284.023102 
	C785.731873,285.510498 786.121582,287.537689 786.830261,289.516296 
	C787.590454,291.638611 786.688599,293.078125 784.880432,294.068085 
	C782.925659,295.138397 781.315063,294.478577 780.076599,292.824646 
	C777.271240,289.078461 774.823120,285.108337 773.283875,280.666046 
	C771.856567,276.546783 774.145996,273.950409 777.321594,271.978638 
	C781.071838,269.650085 784.501770,267.471741 781.446045,262.164032 
	C780.423035,260.387054 781.678223,258.571472 783.398193,257.554047 
	C785.328552,256.412079 787.121338,256.761627 788.899109,258.219421 
	C794.325012,262.668762 799.451904,262.158295 804.212769,256.995789 
	C805.381348,255.728683 805.268311,254.688171 804.437805,253.461823 
	C802.103699,250.015305 799.773132,246.566299 797.414429,243.136673 
	C795.832825,240.837112 793.951294,240.186691 791.541077,242.056656 
	C784.437195,247.568100 777.313171,253.053665 770.178772,258.525513 
	C768.358826,259.921326 768.010376,261.677307 768.392029,263.845093 
	C768.723999,265.730377 767.624573,267.070343 766.005554,267.829224 
	C764.198547,268.676239 762.706604,267.817200 761.627075,266.411926 
	C759.091064,263.110535 756.538147,259.810242 754.221802,256.355499 
	C752.074768,253.153336 754.765991,251.421997 756.798828,249.818329 
	C764.515625,243.730545 772.321777,237.755997 780.098267,231.743973 
	C785.613647,227.480026 785.598206,224.485443 780.084290,219.903915 
	C778.820740,218.854019 777.674622,217.662796 776.270935,216.345581 
	C770.468567,219.687454 766.123474,224.582367 761.182983,228.720047 
	C758.886536,230.643295 756.826782,232.852127 754.505066,234.741440 
	C752.319519,236.519928 750.395813,238.064529 752.103333,241.356400 
	C753.093933,243.266312 751.880920,244.909851 750.184998,245.968109 
	C748.288696,247.151474 746.710754,246.461700 745.330872,244.927368 
	C742.657837,241.955185 739.974854,238.991776 737.272705,236.046036 
	C735.032227,233.603607 735.943176,231.590515 737.966370,229.567062 
	C741.230530,226.302536 744.408875,222.952118 747.740295,219.517441 
	C745.226379,215.741547 742.934204,212.942764 737.648254,215.767746 
	C733.822266,217.812485 728.586975,214.741241 725.272583,209.596985 
	C722.733337,205.655945 723.199890,202.074463 726.561707,198.806122 
	C729.363770,196.081848 731.554749,192.452438 736.604309,195.386200 
	C738.798462,196.661011 742.619934,192.631729 741.154175,190.774567 
	C736.534668,184.921371 742.073730,183.062790 745.155334,179.849625 
z"/>
<path fill="#000000" opacity="1.000000" stroke="none" 
	d="
M640.869934,117.817917 
	C638.146545,123.125443 633.179443,121.097000 628.702209,121.818298 
	C631.205505,126.423988 631.263550,130.555099 628.939270,134.920853 
	C626.857910,138.830261 630.931946,139.910080 632.963318,141.787170 
	C634.262512,142.987747 636.616821,143.564789 636.235535,145.768982 
	C635.708435,148.816055 633.742920,150.080780 630.763733,148.493439 
	C626.209717,146.066956 621.681213,143.586670 617.216309,141.000687 
	C613.490295,138.842606 612.295593,135.795166 614.336182,131.728317 
	C615.380127,129.647797 616.229553,127.468590 617.141235,125.323097 
	C617.920776,123.488525 618.022034,121.716949 616.253235,120.368591 
	C614.275024,118.860634 613.404724,117.211922 614.932922,114.839035 
	C616.365906,112.614105 618.451477,112.320953 620.629761,113.004501 
	C623.653381,113.953308 625.947571,113.779968 627.998413,110.887314 
	C633.316589,103.386047 632.005432,99.650429 622.349182,95.755554 
	C614.875305,92.740929 614.879395,92.742752 611.595215,100.268944 
	C609.064758,106.067711 606.479919,111.843201 604.003357,117.664818 
	C602.789001,120.519325 601.075867,123.327271 604.184937,126.312935 
	C605.548889,127.622742 604.538635,129.478928 603.520874,130.870605 
	C602.310791,132.525223 600.729492,132.375290 599.054016,131.644089 
	C595.544983,130.112717 592.045715,128.555618 588.502930,127.105865 
	C585.401245,125.836647 584.608215,123.911942 586.050659,120.796547 
	C588.353455,115.823029 590.438721,110.748779 592.965881,104.908401 
	C592.473816,104.685036 591.835754,104.446060 591.246704,104.118889 
	C589.202881,102.983788 586.774536,101.995552 587.904541,98.910545 
	C588.950562,96.054726 591.026428,95.202423 593.895264,96.266533 
	C595.593933,96.896629 596.977356,96.323875 597.560425,94.692757 
	C598.562378,91.889374 601.603699,89.313911 599.419556,86.047928 
	C598.142273,84.137985 597.497925,82.559593 598.953308,80.661308 
	C600.759888,78.305077 602.735046,79.606789 604.763062,80.428703 
	C624.376892,88.377823 642.309998,99.616280 661.133179,109.106766 
	C672.070862,114.621506 681.086670,122.832016 691.151184,129.555099 
	C704.015137,138.148163 716.642273,147.260300 727.842957,158.086594 
	C729.440125,159.630325 731.870728,161.114059 729.706665,163.875229 
	C728.341309,165.617325 726.490295,166.648666 724.552979,164.964050 
	C721.706360,162.488663 719.945068,163.732178 717.988220,166.137970 
	C713.044617,172.215927 707.932129,171.488586 704.263855,164.279022 
	C703.671082,163.114014 703.705322,161.641617 702.546448,160.747650 
	C701.194580,159.704712 699.759827,158.579086 698.124268,160.056839 
	C696.767212,161.283035 697.079102,162.920563 698.081909,164.129761 
	C699.989624,166.429993 702.118713,168.547058 704.162292,170.734177 
	C709.457581,176.401367 709.172974,179.367355 702.544373,187.515915 
	C698.518677,192.464691 694.855591,193.029343 689.047058,189.272812 
	C684.016418,186.019363 678.972473,182.721268 674.877258,178.272003 
	C671.270813,174.353821 672.202881,167.740021 676.554077,164.766159 
	C679.119751,163.012650 680.975830,164.542282 682.812073,165.977356 
	C685.097839,167.763687 688.323059,169.120499 687.256348,172.943436 
	C686.755554,174.738266 684.709290,176.391907 687.430664,178.044144 
	C689.785339,179.473679 691.225952,177.991394 692.489624,176.388092 
	C694.022766,174.442856 695.987976,172.362137 693.654053,169.807709 
	C692.204468,168.221298 690.388916,166.975189 688.795288,165.513458 
	C683.824280,160.953796 683.198120,156.657806 686.771729,151.946365 
	C690.238647,147.375671 694.181702,146.852798 699.896912,150.424042 
	C702.689636,152.169144 705.305359,154.197525 708.092285,156.161942 
	C710.544495,154.020370 709.228455,152.559708 707.761108,151.083237 
	C703.115234,146.408554 697.109253,143.373474 692.805237,138.111298 
	C691.609924,136.649841 687.955750,135.799805 685.429688,134.656403 
	C683.422424,133.747818 682.343079,135.335815 681.435730,136.739655 
	C676.735535,144.012192 672.084106,151.316254 667.414307,158.608459 
	C666.340088,160.286087 666.073547,161.893585 667.334167,163.688934 
	C668.792419,165.765869 667.669373,167.531158 666.163818,168.983948 
	C664.651062,170.443680 663.059814,169.663101 661.609680,168.731094 
	C658.666931,166.839874 655.834534,164.762497 652.808899,163.018173 
	C648.994690,160.819214 648.555725,158.321838 651.386230,154.977753 
	C652.296692,153.902084 653.474854,152.752304 653.074585,150.716248 
	C649.816956,149.528061 646.157898,149.001678 643.040161,147.023773 
	C637.585876,143.563446 636.135071,139.313080 638.773315,133.432373 
	C639.928223,130.858017 641.429321,128.438065 642.788879,125.956596 
	C644.811646,122.264938 647.364197,119.127823 652.104004,119.799744 
	C657.470276,120.560478 661.672485,123.475456 664.796936,127.869118 
	C665.506897,128.867371 665.435364,130.111954 664.694275,131.164993 
	C663.781555,132.461990 662.562927,132.661072 661.191101,131.936905 
	C659.372131,130.976685 657.508972,130.712891 656.410095,132.754456 
	C654.859741,135.634842 652.331177,138.305969 652.720459,141.803268 
	C652.994385,144.262955 657.543823,145.258072 659.112915,143.120697 
	C662.951843,137.891541 666.449158,132.410385 670.045837,127.005295 
	C671.123108,125.386307 670.194763,124.260963 668.998535,123.142784 
	C662.916321,117.457375 655.303955,114.354225 648.033264,110.686516 
	C645.945312,109.633247 644.554932,110.812622 643.598328,112.644150 
	C642.752319,114.263916 641.919006,115.890289 640.869934,117.817917 
z"/>
<path fill="#000000" opacity="1.000000" stroke="none" 
	d="
M279.216370,874.748108 
	C279.073059,878.099487 279.163483,880.757202 282.007202,882.694275 
	C283.682556,883.835571 283.442535,885.979492 282.895325,887.783630 
	C282.309296,889.715881 280.607361,889.992554 278.879852,890.089294 
	C278.713562,890.098572 278.546875,890.104797 278.380341,890.106201 
	C262.222443,890.239807 264.888153,890.414001 264.523804,877.419189 
	C264.345886,871.073425 263.399017,869.943054 258.509247,870.204285 
	C256.166382,870.329468 255.013748,871.243591 254.334442,873.577332 
	C253.060028,877.955505 248.411865,879.915344 242.521057,878.872986 
	C238.051376,878.082214 235.232544,875.945435 235.598480,870.825012 
	C235.863602,867.115234 235.059982,863.705627 239.823502,861.351318 
	C243.336166,859.615234 240.990005,854.895508 240.721298,851.578979 
	C240.471527,848.496216 237.522598,849.297058 235.500595,849.234497 
	C227.186462,848.977051 227.170746,849.042114 227.184875,857.319702 
	C227.194550,862.984314 227.163422,868.648987 227.150436,874.313660 
	C227.142914,877.586792 226.458939,880.996948 230.711258,882.646118 
	C232.416748,883.307617 232.288055,885.436646 231.997406,887.122742 
	C231.666000,889.045288 230.352875,890.007751 228.481308,890.025757 
	C224.319504,890.065857 220.153549,890.090576 215.995102,889.949524 
	C211.726395,889.804749 212.273972,885.987915 211.517639,883.038147 
	C207.048721,884.163086 202.954742,885.464355 198.572342,885.214844 
	C193.449921,884.923157 188.402359,884.541809 185.648392,879.360535 
	C183.456543,875.236816 184.700592,867.048767 188.363129,862.238464 
	C181.989594,858.756226 182.800323,852.554993 182.838547,846.584778 
	C182.861740,842.960144 184.675964,840.505188 188.013733,839.439148 
	C191.961044,838.178467 196.090576,838.122742 199.479507,840.732178 
	C202.405212,842.985046 202.336395,846.557861 201.944244,849.954712 
	C201.797943,851.221924 200.958939,851.978882 199.811371,852.503235 
	C198.534027,853.086792 197.470566,853.973450 197.832031,855.566833 
	C198.177170,857.088196 199.481400,857.588928 200.851410,857.774109 
	C203.151398,858.085022 205.066696,858.621704 205.183777,861.553528 
	C205.289444,864.200134 203.997604,865.342224 201.657043,866.214111 
	C197.943619,867.597351 199.248230,870.937622 199.503769,873.562439 
	C199.762039,876.215088 201.950485,876.820740 204.328430,876.835449 
	C209.112061,876.865051 211.743393,874.462952 211.838745,869.801636 
	C211.920517,865.804443 211.938934,861.804993 211.920593,857.806885 
	C211.903488,854.080139 212.781311,850.051575 207.496002,848.606445 
	C205.894745,848.168640 205.790817,845.899780 206.184509,844.171936 
	C206.537125,842.624268 207.311401,841.294067 209.017624,841.056641 
	C210.658295,840.828247 212.335388,840.792847 213.996597,840.791504 
	C235.988922,840.774109 257.981323,840.796997 279.973511,840.741943 
	C281.891937,840.737183 283.939545,841.254578 286.105591,839.904175 
	C281.723938,834.876770 275.099579,832.708252 270.779755,827.671875 
	C276.204132,824.111206 285.122650,824.803223 290.011292,829.317139 
	C292.996826,832.073853 294.636139,832.031189 296.941071,828.567200 
	C299.617615,824.544678 310.780182,821.901489 315.314117,823.635986 
	C317.112915,824.324158 318.062622,825.529907 317.802582,827.439331 
	C317.568146,829.160400 316.462158,830.012634 314.692200,830.044006 
	C313.532227,830.064575 312.296783,829.973877 311.230255,830.333618 
	C308.141632,831.375549 307.002014,833.766479 306.929016,836.920044 
	C306.856567,840.051941 308.651154,840.870178 311.321594,841.052002 
	C314.126282,841.242920 315.459076,842.829102 315.330353,845.692261 
	C315.194946,848.704773 313.132935,849.130859 310.819794,849.091553 
	C307.192139,849.029968 306.325104,851.117004 306.414490,854.247864 
	C306.632660,861.891724 306.777374,869.537842 306.915131,877.183716 
	C306.952789,879.273438 307.248566,881.047302 309.404938,882.189880 
	C311.752686,883.433838 311.684113,885.763489 311.035767,887.910645 
	C310.373291,890.104797 308.316620,890.109863 306.475769,890.111084 
	C289.551025,890.122131 291.800446,891.762024 291.634338,876.174683 
	C291.556213,868.844910 291.504333,861.510803 291.673218,854.183960 
	C291.788696,849.174988 288.644806,849.195862 285.047516,849.135559 
	C281.341583,849.073547 278.951569,849.781738 279.116730,854.294006 
	C279.360291,860.949829 279.202423,867.620483 279.216370,874.748108 
M262.733978,861.497437 
	C266.024933,858.336365 264.611298,854.423523 264.138977,850.839050 
	C263.877106,848.851624 261.551361,849.179810 259.950256,849.173950 
	C258.363037,849.168152 256.203766,848.669434 255.637299,850.638855 
	C254.722427,853.819641 254.494324,857.333862 255.711090,860.365173 
	C256.780975,863.030701 259.735840,861.678650 262.733978,861.497437 
z"/>
<path fill="#000000" opacity="1.000000" stroke="none" 
	d="
M481.451477,853.766113 
	C483.444031,853.469421 485.647980,853.730774 485.321075,851.256531 
	C485.080750,849.437683 483.222870,849.302795 481.721558,849.290527 
	C473.559204,849.223572 465.396271,849.226074 457.233643,849.186890 
	C454.542572,849.173950 453.305725,850.451904 453.310272,853.163452 
	C453.323608,861.159912 453.281586,869.156616 453.214752,877.152832 
	C453.197601,879.205078 454.015717,880.557922 455.845947,881.549988 
	C458.340240,882.902039 458.451355,885.255615 457.798553,887.653137 
	C457.115845,890.160461 454.962830,890.141602 452.933441,890.140015 
	C435.899872,890.126770 437.954987,891.943542 437.790436,875.944336 
	C437.720184,869.114502 437.639862,862.278076 437.863342,855.454468 
	C438.002533,851.204834 436.959412,848.981262 432.082306,849.019653 
	C427.490021,849.055908 425.887268,850.679565 426.084137,855.213684 
	C426.387421,862.198914 426.261993,869.204956 426.224182,876.201660 
	C426.210052,878.817871 426.468323,881.106995 429.031982,882.649963 
	C430.784149,883.704529 431.251495,885.514648 430.553467,887.469727 
	C429.900360,889.299133 428.344757,889.823364 426.586365,889.961304 
	C426.420258,889.974365 426.254089,889.993652 426.087799,889.995178 
	C409.122345,890.152527 411.516968,891.418274 411.562561,876.452087 
	C411.569672,874.119873 411.620117,871.787476 411.599304,869.455566 
	C411.573334,866.543762 410.891113,864.194885 407.306915,863.917053 
	C405.192963,863.753174 404.034332,862.401184 404.063477,860.213806 
	C404.093903,857.928223 405.137177,856.388245 407.474792,855.980225 
	C409.195282,855.679993 410.768097,855.385498 410.816803,853.093079 
	C410.858490,851.130127 410.013794,849.906433 408.173798,849.387207 
	C405.368927,848.595764 405.338928,846.484131 405.637054,844.205139 
	C406.008057,841.369141 408.065277,840.917786 410.390320,840.912781 
	C416.887573,840.898743 423.386322,840.821655 429.881561,840.936401 
	C433.411987,840.998779 434.899506,839.820618 434.823883,835.989319 
	C434.693481,829.385254 436.554779,827.205872 443.121613,826.504822 
	C452.400696,825.514160 461.816925,824.740784 470.656525,828.744446 
	C475.696350,831.027100 480.427399,833.971741 481.084717,840.800110 
	C487.388733,840.800110 493.524139,840.791565 499.659454,840.804016 
	C502.325317,840.809448 504.989288,840.820007 507.575165,841.655029 
	C509.322601,842.219421 510.553131,843.213135 510.573242,845.164490 
	C510.593842,847.170471 509.317688,848.473511 507.519104,848.475769 
	C501.207153,848.483643 500.996765,852.443298 501.259918,857.198242 
	C501.544952,862.349243 501.229218,867.533142 501.502991,872.685303 
	C501.700073,876.394226 501.286743,880.390991 505.173920,882.993286 
	C506.667969,883.993591 506.338654,886.000916 505.861084,887.650208 
	C505.298798,889.592163 503.753296,890.054993 501.960236,890.067688 
	C501.793640,890.068848 501.627167,890.077271 501.460571,890.078918 
	C484.033936,890.254028 487.077545,890.767883 486.775360,876.347900 
	C486.705566,873.017456 486.758911,869.683655 486.645782,866.355164 
	C486.560089,863.834961 485.307831,862.278564 482.619720,862.260010 
	C479.990814,862.241882 478.294128,863.707092 478.445343,866.194763 
	C478.785461,871.790588 476.405182,877.749756 481.124542,882.842529 
	C483.074554,884.946716 480.902313,888.749023 477.694977,889.761719 
	C470.693970,891.972290 463.911926,887.277344 463.714172,879.926086 
	C463.570923,874.599426 463.614502,869.263123 463.740662,863.935059 
	C463.900726,857.174072 466.728363,854.325928 473.532074,853.923828 
	C476.024353,853.776550 478.528168,853.824158 481.451477,853.766113 
M451.989532,835.048340 
	C449.424438,838.639526 450.546936,840.633911 454.747955,840.851929 
	C458.613342,841.052551 462.497314,840.894653 467.529388,840.894653 
	C462.857086,835.696716 458.752197,832.653259 451.989532,835.048340 
z"/>
<path fill="#000000" opacity="1.000000" stroke="none" 
	d="
M611.778809,864.230591 
	C610.012451,864.270691 608.678589,864.275391 607.347107,864.334961 
	C603.210938,864.519836 600.711365,866.236023 601.134705,870.839294 
	C601.286682,872.492554 601.158630,874.170471 601.186096,875.836670 
	C601.220032,877.892395 601.269836,880.096680 603.923645,880.437805 
	C606.710632,880.796021 607.370178,878.556213 607.408081,876.561951 
	C607.500549,871.703247 610.462036,870.874695 614.408752,870.937134 
	C620.628418,871.035522 621.974670,872.323853 622.107544,878.606201 
	C622.128662,879.605652 622.195984,880.616577 622.083374,881.604065 
	C621.746033,884.562622 623.291321,888.904053 619.182739,889.650391 
	C615.139954,890.384827 610.104431,892.091675 607.160156,886.740723 
	C606.024414,884.676697 604.046631,885.295776 602.238159,885.526245 
	C591.338135,886.915833 587.052856,883.218567 586.904541,872.301758 
	C586.884155,870.802063 586.824097,869.298523 586.899353,867.802734 
	C587.260254,860.629272 590.686951,857.628662 597.923035,858.266357 
	C599.925842,858.442871 601.855713,858.742126 603.831787,858.013489 
	C605.882446,857.257385 606.582825,855.787903 606.589233,853.760254 
	C606.594910,851.959167 606.119324,850.401550 604.317688,849.695984 
	C602.671021,849.051147 601.141541,849.277649 599.664612,850.456543 
	C594.575989,854.518494 592.109070,854.467407 586.923096,850.210327 
	C585.146545,848.752014 583.180847,848.901428 581.242432,849.357361 
	C578.829651,849.924866 579.121948,852.078613 579.112915,853.855103 
	C579.072937,861.687866 579.118164,869.520996 579.116455,877.354004 
	C579.116028,879.454651 579.383057,881.256775 581.770081,882.153259 
	C584.052979,883.010681 584.321167,885.084839 583.937866,887.179810 
	C583.489136,889.631897 581.651978,890.193359 579.448669,890.185120 
	C561.428772,890.117737 564.219177,891.783569 563.934814,875.768677 
	C563.804626,868.437805 563.834045,861.102051 563.923645,853.770142 
	C563.966370,850.275879 562.321777,849.141174 559.008118,849.143188 
	C555.665833,849.145264 553.967407,850.328674 554.198486,853.818115 
	C554.574402,859.497009 552.946960,864.071045 545.942993,866.103516 
	C550.505615,869.386780 551.613159,873.315002 551.630493,877.787659 
	C551.639648,880.158447 553.589050,881.488159 555.295654,882.875916 
	C556.652710,883.979431 557.430176,885.500610 556.986694,887.304504 
	C556.504883,889.264160 554.817017,889.781982 553.122009,889.877380 
	C550.466064,890.026794 547.769104,890.194885 545.139099,889.905090 
	C539.249023,889.256226 536.642029,886.267456 536.237976,879.255859 
	C535.968018,874.572021 536.302490,870.018311 529.586182,869.986572 
	C527.870972,869.978455 527.405945,868.088562 527.409363,866.516357 
	C527.412781,864.946838 527.857727,863.466980 529.591370,862.978271 
	C530.703125,862.664856 531.892029,862.635620 533.036865,862.427063 
	C538.316650,861.465454 540.987732,855.972290 538.534790,851.108032 
	C537.258362,848.576599 534.828857,849.401611 532.772156,849.215149 
	C530.818176,849.038025 528.667236,849.480103 527.352112,847.444519 
	C525.345581,844.338806 527.477722,840.914124 531.704163,840.841858 
	C539.534912,840.707886 547.371277,840.718140 555.202087,840.854919 
	C558.912292,840.919678 561.095886,840.550659 560.466370,835.685425 
	C559.787659,830.440796 562.404297,827.362305 567.725037,826.768005 
	C579.457153,825.457520 591.385010,823.576965 601.780701,831.781555 
	C604.592407,834.000732 607.221191,836.268005 607.007324,840.203796 
	C619.298340,841.802856 620.832825,843.119751 621.030945,852.033447 
	C621.197388,859.518372 618.558960,863.164551 611.778809,864.230591 
M587.021545,835.171204 
	C584.538086,833.897095 581.898987,833.841919 579.252869,834.354126 
	C577.655640,834.663269 576.570557,835.713257 576.510071,837.440002 
	C576.459534,838.878906 577.141785,840.575378 578.493958,840.454956 
	C584.114380,839.953857 589.597778,845.386169 595.451172,840.620850 
	C592.386292,839.563171 590.318848,837.156067 587.021545,835.171204 
z"/>
<path fill="#000000" opacity="1.000000" stroke="none" 
	d="
M694.218384,866.989319 
	C694.219727,870.484558 694.241821,873.483643 694.215271,876.482361 
	C694.193726,878.909119 694.418762,881.039734 697.115356,882.241577 
	C699.305664,883.217773 699.406555,885.384216 698.886536,887.436523 
	C698.338745,889.598694 696.558533,890.059204 694.601257,890.103333 
	C694.434692,890.107056 694.268311,890.116028 694.101746,890.119202 
	C675.874390,890.472412 679.547058,890.405884 678.991150,876.155212 
	C678.861328,872.828186 678.967102,869.491943 678.966187,866.159912 
	C678.965637,864.194153 678.653625,862.414429 676.217651,862.154114 
	C673.905945,861.907104 671.510193,862.194824 671.043274,864.854553 
	C670.062256,870.441711 669.761597,876.157959 672.331726,881.420898 
	C674.544312,885.951538 673.127930,889.263367 668.199768,889.917664 
	C661.875549,890.757446 656.644958,887.198669 656.109314,880.893494 
	C655.589478,874.774292 655.628601,868.560486 656.023132,862.426819 
	C656.303162,858.074219 658.789124,854.958313 663.626282,854.626160 
	C667.442261,854.364075 671.264526,854.192993 675.080078,853.925049 
	C676.509888,853.824585 678.434509,854.101379 678.425110,851.916809 
	C678.417480,850.137817 676.728943,850.125061 675.432373,849.976013 
	C666.800232,848.983032 658.133972,849.253296 649.472778,849.297729 
	C646.837830,849.311218 646.035889,850.771301 646.052979,853.136475 
	C646.111938,861.299866 646.142395,869.463562 646.146606,877.627136 
	C646.147705,879.629333 646.862366,881.101746 648.616333,882.186707 
	C650.630066,883.432373 650.799255,885.437378 650.218872,887.494263 
	C649.605164,889.669067 647.750305,890.021667 645.845154,890.056213 
	C628.948181,890.362427 630.960571,890.850403 630.861328,876.517395 
	C630.841736,873.685181 630.831543,870.852783 630.829163,868.020508 
	C630.827454,866.004761 630.315186,864.360474 627.969604,864.052185 
	C625.350891,863.707886 623.655396,862.651428 623.747253,859.597900 
	C623.843384,856.402466 625.834900,855.801758 628.393982,855.644653 
	C628.848938,855.616760 629.284668,855.275208 629.753967,855.067566 
	C630.637817,852.349792 629.831726,850.517578 627.159729,849.512878 
	C624.296265,848.436096 624.356323,846.020935 624.744263,843.666443 
	C625.161011,841.136902 627.227905,840.795532 629.331909,840.796631 
	C652.490112,840.809204 675.648315,840.832458 698.806519,840.866150 
	C701.450500,840.869995 703.307068,841.765015 703.445312,844.843506 
	C703.592957,848.130798 701.948669,849.441650 698.897095,849.234131 
	C694.991150,848.968506 694.077637,851.096619 694.204346,854.498291 
	C694.353027,858.491211 694.225708,862.494324 694.218384,866.989319 
z"/>
<path fill="#000000" opacity="1.000000" stroke="none" 
	d="
M379.954956,857.835449 
	C383.696259,858.020203 387.048615,858.288086 387.005829,853.447876 
	C386.992096,851.893250 386.841553,850.317444 385.183441,849.669128 
	C383.560059,849.034424 382.014526,849.199951 380.574585,850.495239 
	C375.516357,855.045715 372.391907,855.089050 367.605652,850.564026 
	C366.195496,849.230957 364.719025,848.951599 363.048187,849.372681 
	C360.868896,849.922058 361.090088,851.831787 361.117432,853.456726 
	C361.211395,859.043152 359.931915,863.792419 352.562592,865.816772 
	C357.451355,869.309387 358.657196,873.523254 358.672241,878.314575 
	C358.678558,880.317932 360.353882,881.420654 362.224274,882.063171 
	C364.717499,882.919617 365.434937,884.909851 365.011353,887.252075 
	C364.558014,889.759155 362.457092,890.058105 360.376740,890.094971 
	C358.045837,890.136292 355.703857,890.217468 353.383270,890.050720 
	C346.720917,889.571960 343.863647,886.553162 343.617645,879.927612 
	C343.444794,875.273254 343.992950,870.268860 337.123566,869.721375 
	C335.463043,869.588989 335.039917,867.727722 335.129425,866.127808 
	C335.250977,863.954163 336.500366,862.962646 338.628937,862.637085 
	C341.714264,862.165283 345.383087,862.088135 345.716614,857.820557 
	C346.278900,850.625427 345.724640,848.609131 338.779449,849.189514 
	C336.012665,849.420654 333.800201,848.557373 333.807922,845.115295 
	C333.815308,841.819214 335.743469,840.678894 338.648010,840.836487 
	C348.895142,841.392151 359.118866,840.658386 369.452423,841.777466 
	C376.175446,842.505493 383.575989,840.947388 390.696259,840.752441 
	C398.681885,840.533813 401.401276,843.145874 401.701111,851.281006 
	C402.018646,859.896667 398.653625,863.980652 391.018188,864.246216 
	C382.879578,864.529297 378.730896,871.776306 382.523834,879.025024 
	C383.383362,880.667603 384.778961,880.885010 386.329346,880.649292 
	C388.507996,880.317932 388.855377,878.608154 388.671417,876.875977 
	C388.151581,871.981750 390.841461,870.889099 395.023193,870.998779 
	C401.235382,871.161865 402.087952,871.925903 402.150513,878.291748 
	C402.160339,879.291199 402.278900,880.306152 402.147980,881.287415 
	C401.755066,884.231873 403.782166,888.624207 399.834412,889.617371 
	C395.900787,890.606995 390.811829,892.213562 388.113037,886.489502 
	C387.254425,884.668518 385.264191,885.063904 383.618866,885.250916 
	C380.450836,885.611145 377.266205,885.813293 374.208405,884.806824 
	C368.200500,882.829346 366.233185,876.610718 367.852905,865.193726 
	C368.538300,860.362244 371.394592,858.184631 377.508423,857.847107 
	C378.173004,857.810364 378.840820,857.831726 379.954956,857.835449 
z"/>
<path fill="#000000" opacity="1.000000" stroke="none" 
	d="
M847.566040,594.557739 
	C849.248474,594.939392 850.535339,595.307129 851.847351,595.521667 
	C855.125549,596.057861 857.413452,595.219177 857.772705,591.392273 
	C858.031189,588.639465 858.561523,585.725525 862.421082,586.480957 
	C865.788879,587.140137 866.208923,589.366882 865.539246,592.541443 
	C864.494873,597.492371 868.370605,601.199707 873.457031,600.337952 
	C876.219421,599.869995 876.643372,597.522095 875.246521,595.835999 
	C873.112305,593.259766 873.400940,590.642029 873.846008,587.843994 
	C874.241577,585.356567 874.572205,582.441223 877.782959,582.302063 
	C880.995178,582.162659 883.523804,583.840820 884.741394,587.013855 
	C885.483643,588.948425 885.325500,590.983276 884.979431,592.941589 
	C884.022400,598.357788 882.721558,603.698975 880.745789,608.844482 
	C879.301636,612.605469 877.165466,616.135803 872.619629,615.714355 
	C867.286072,615.219849 861.367249,615.189392 858.766968,608.859863 
	C858.529358,608.281555 858.228027,607.729431 857.940063,607.131592 
	C852.717590,610.637085 838.901733,609.260132 834.204163,604.901428 
	C832.513428,603.332581 831.621582,601.344177 831.946228,599.068604 
	C832.863403,592.640808 833.695679,586.166321 835.993225,580.050476 
	C838.726501,572.774841 847.554749,570.674133 853.283508,576.000488 
	C856.531128,579.020081 854.067871,582.585205 853.386902,585.830383 
	C852.894470,588.177124 850.943115,588.004272 848.953674,587.639893 
	C846.597595,587.208374 843.499695,586.013428 842.500793,589.271301 
	C841.403442,592.850586 844.745605,593.493896 847.566040,594.557739 
z"/>
<path fill="#000000" opacity="1.000000" stroke="none" 
	d="
M594.007568,79.279510 
	C592.375061,86.096214 591.260864,92.932007 582.718628,94.816261 
	C588.999817,103.425339 581.696594,109.708672 578.869934,116.620155 
	C577.571228,119.795593 573.608398,119.955330 570.408325,118.998489 
	C564.668274,117.282143 559.026428,115.174370 553.796631,112.243149 
	C547.534912,108.733620 546.589905,100.189522 551.831421,95.205345 
	C555.035645,92.158363 557.648804,95.435410 560.381287,96.489136 
	C562.695312,97.381493 563.805054,99.074577 562.700989,101.645309 
	C562.307434,102.561607 561.870178,103.474731 561.617859,104.432770 
	C561.112427,106.351822 561.994385,107.683083 563.704468,108.443054 
	C565.267273,109.137604 566.675049,108.781593 567.633850,107.323654 
	C569.477600,104.519966 570.871826,101.470795 571.549133,98.201355 
	C572.211182,95.005440 569.721313,93.898384 567.383545,92.860497 
	C565.150757,91.869202 562.973206,90.819023 564.089783,87.739639 
	C565.190979,84.702789 567.457092,84.317368 570.156189,85.383057 
	C574.176208,86.970276 576.979614,85.886116 578.334106,81.712372 
	C578.962463,79.775917 579.300720,77.756088 577.434814,76.195641 
	C575.756653,74.792259 574.540283,76.013329 573.000671,76.770653 
	C569.078064,78.700172 565.941650,76.043068 562.996765,74.147034 
	C560.892944,72.792458 562.054321,70.478722 563.130310,68.774429 
	C565.103333,65.649315 567.738037,64.124443 571.583862,65.548340 
	C577.510925,67.742767 583.462097,69.858696 589.007019,72.949577 
	C591.430298,74.300362 593.291626,76.090790 594.007568,79.279510 
z"/>
<path fill="#000000" opacity="1.000000" stroke="none" 
	d="
M690.797607,109.210625 
	C692.144348,110.220505 693.198425,111.031639 694.284485,111.797493 
	C697.101624,113.784126 699.147217,115.682358 696.217224,119.413895 
	C693.505554,122.867371 691.057495,123.773338 687.707520,120.483940 
	C686.895508,119.686661 685.783081,119.191444 684.797302,118.575798 
	C682.083130,116.880707 680.483765,114.920616 682.712891,111.668121 
	C684.690063,108.783348 686.506714,105.785400 690.797607,109.210625 
z"/>
<path fill="#000000" opacity="1.000000" stroke="none" 
	d="
M705.872925,886.797241 
	C705.513062,883.291565 706.928589,881.768494 709.996033,881.408020 
	C713.337646,881.015320 716.625671,881.081299 719.940613,881.630432 
	C722.475952,882.050476 723.842590,883.434570 723.835938,885.976074 
	C723.828918,888.656982 722.102661,890.196594 719.690613,889.895447 
	C715.062439,889.317749 709.624146,892.566956 705.872925,886.797241 
z"/>
<path fill="#000000" opacity="1.000000" stroke="none" 
	d="
M716.296631,868.456299 
	C714.052368,868.342346 712.230652,868.268066 710.409058,868.189453 
	C708.023621,868.086426 706.042114,867.347534 706.016479,864.552063 
	C705.987915,861.441589 708.139771,860.838562 710.729309,860.766724 
	C713.210144,860.697937 715.689636,860.500977 718.163940,860.291870 
	C721.141235,860.040100 723.573914,860.588440 723.809875,864.181946 
	C724.047852,867.808289 721.701904,868.659973 718.699402,868.657410 
	C718.039307,868.656860 717.379272,868.551270 716.296631,868.456299 
z"/>
<path fill="#000000" opacity="1.000000" stroke="none" 
	d="
M336.188599,509.363159 
	C337.114655,504.352783 337.980560,499.792633 338.053009,495.092346 
	C338.110168,491.387146 339.400604,488.169708 343.357513,486.891479 
	C345.718994,486.128632 346.073364,484.221619 346.351654,482.182129 
	C346.680908,479.769043 344.976593,478.940125 343.229065,478.314209 
	C340.180206,477.222198 338.343842,475.428192 339.116943,471.958435 
	C340.997589,463.518036 342.919800,455.086884 344.826233,446.652252 
	C344.862915,446.489868 344.894196,446.323059 344.957214,446.170319 
	C345.821930,444.073303 345.865692,441.197510 348.533752,440.566528 
	C351.158417,439.945801 350.518097,443.731140 352.866089,444.372833 
	C354.741638,441.894836 354.687988,438.929352 354.843628,436.009949 
	C355.846161,417.204071 355.944641,398.380707 355.842987,379.557098 
	C355.731171,358.851196 357.450012,338.329590 361.722443,318.053772 
	C362.233582,315.628265 363.095886,313.256042 364.012238,310.945068 
	C364.490143,309.739746 365.372833,308.409882 367.008972,308.916840 
	C368.610138,309.412964 368.565094,310.912231 368.421631,312.265930 
	C367.913055,317.064880 367.303680,321.853790 366.846069,326.657349 
	C365.575775,339.992615 366.907806,353.218018 368.312500,366.475342 
	C370.013550,382.529510 372.931244,398.394623 375.190399,414.360260 
	C375.498718,416.539001 375.364319,419.091248 378.565796,420.728729 
	C381.015411,415.989899 380.873047,410.818695 381.728577,405.949097 
	C383.770691,394.325653 389.704865,386.000610 401.230286,382.258087 
	C403.076935,381.658417 405.076752,380.787598 407.011353,383.339661 
	C404.625549,387.724915 398.576355,389.117310 397.071472,394.423645 
	C395.680725,399.327393 395.745361,404.156616 396.554535,409.215515 
	C399.666016,409.623901 401.283905,407.710724 403.111786,406.465179 
	C411.504639,400.746429 419.742676,394.818481 429.348633,391.121735 
	C432.721405,389.823792 434.759430,390.329529 436.983459,393.265289 
	C444.118347,402.683563 453.385406,406.466980 465.095642,402.972168 
	C466.477356,402.559784 468.004608,401.981262 469.580383,403.631927 
	C468.535309,408.725494 462.982483,409.987946 460.058777,413.851501 
	C463.458466,416.499023 468.571533,411.935394 471.746338,417.433289 
	C447.569855,426.849548 423.886993,436.609100 400.768280,447.906769 
	C408.080902,445.976257 415.330414,443.747711 422.720428,442.182892 
	C434.772369,439.630951 446.898499,437.237061 459.318512,439.665497 
	C461.387329,440.070007 463.738556,440.064087 464.467773,443.230499 
	C454.607147,446.792053 456.032837,455.575073 456.210205,463.156555 
	C456.513947,476.139557 460.984009,488.214569 466.357483,499.926514 
	C466.495941,500.228241 466.725037,500.492157 466.839630,500.800537 
	C467.671204,503.039154 470.343323,505.534210 468.388397,507.562988 
	C466.240356,509.792236 463.853119,506.846191 461.746246,505.886353 
	C445.009888,498.262177 427.437042,494.540680 407.933899,493.760468 
	C410.540009,496.315704 412.922974,496.759308 415.049896,497.584961 
	C417.219025,498.426910 419.492340,498.995880 421.687561,499.775726 
	C429.841461,502.672424 438.006531,505.541138 446.111511,508.569977 
	C448.322327,509.396118 450.918243,510.058929 451.699371,513.221008 
	C448.779999,515.106018 445.816742,514.365906 443.036957,513.602112 
	C431.639191,510.470367 420.290497,507.160217 408.911743,503.958405 
	C407.070129,503.440216 405.316071,502.119995 402.560944,503.311981 
	C412.785370,515.049805 426.056519,519.440613 440.928589,520.929199 
	C437.345398,524.840454 433.143677,524.862671 429.145874,524.652588 
	C417.362732,524.033264 405.650238,523.216125 394.169769,519.761963 
	C384.304047,516.793518 375.903717,511.877075 368.808594,504.611816 
	C364.809937,500.517303 355.149139,501.674286 350.669647,507.272125 
	C348.183838,510.378510 346.214874,513.894226 343.931305,517.168457 
	C342.729248,518.892029 341.686432,521.348450 339.079956,520.716309 
	C336.782837,520.159241 336.718994,517.676880 336.431427,515.754211 
	C336.138641,513.796204 336.209473,511.783783 336.188599,509.363159 
M423.584839,471.142700 
	C426.956665,467.723328 428.840393,463.774139 427.278809,458.946564 
	C426.356567,456.095428 424.144196,454.387604 421.104553,455.270050 
	C417.973663,456.178955 419.447235,458.643341 419.878510,460.680786 
	C420.817444,465.116638 418.302216,470.279633 414.041840,472.300049 
	C409.612122,474.400818 406.385223,472.247742 403.607666,468.949707 
	C402.980072,468.204468 402.635468,467.161713 401.152161,466.918732 
	C397.467438,468.446838 394.747925,471.692719 391.583527,474.311829 
	C389.018677,476.434692 386.637360,477.692688 383.004639,476.455078 
	C378.943390,475.071381 375.780762,476.958954 373.592651,481.178894 
	C377.614685,482.192932 381.110504,481.918610 384.660980,480.874268 
	C392.091492,478.688599 398.763550,474.258118 407.332367,475.515839 
	C412.555267,476.282440 418.296936,474.970856 423.584839,471.142700 
M445.723877,451.610138 
	C445.755035,448.556366 443.785675,448.114441 441.382721,448.352905 
	C439.110077,448.578430 436.873718,449.306519 436.704926,451.920776 
	C436.307495,458.077271 436.520935,464.272430 435.307098,470.524323 
	C442.314392,466.331482 444.284424,459.526337 445.723877,451.610138 
z"/>
<path fill="#000000" opacity="1.000000" stroke="none" 
	d="
M349.720764,414.377380 
	C348.415497,421.381409 346.970306,427.890350 343.820953,433.851593 
	C335.689880,449.242401 313.317902,450.629761 303.387695,436.341034 
	C297.269653,427.537628 295.026215,417.415710 294.886108,406.994873 
	C294.539032,381.182251 294.523987,355.362488 296.603790,329.592529 
	C297.340515,320.464111 296.284882,311.255646 297.648468,302.144440 
	C297.885071,300.563629 297.616486,298.399414 299.955017,298.387115 
	C302.050323,298.376068 302.650421,300.434906 302.724121,301.993256 
	C302.959625,306.974579 303.079010,311.979706 302.874146,316.960449 
	C301.894592,340.774628 301.680939,364.579498 303.290924,388.375732 
	C303.512207,391.646423 303.930420,392.819794 305.684814,395.749146 
	C307.615021,394.222260 307.666870,391.989349 307.895081,389.902863 
	C310.265900,368.225067 312.760101,346.555878 313.819092,324.760986 
	C314.258484,315.718018 317.302734,307.130554 318.226807,298.176697 
	C318.380310,296.689453 319.075317,295.055878 320.972046,295.184692 
	C323.193634,295.335602 323.215515,297.233795 323.412994,298.914154 
	C324.503052,308.188721 324.241028,317.533905 324.823914,326.842194 
	C326.175476,348.426819 328.488281,369.976562 328.098999,391.656708 
	C328.009613,396.633087 326.796631,401.603943 327.948395,406.594055 
	C328.209930,407.727295 328.321198,408.905884 328.685211,410.002716 
	C329.684540,413.014099 331.505524,415.894104 334.738159,415.927032 
	C338.355957,415.963898 337.910309,412.113190 338.336884,409.785919 
	C340.380981,398.634094 341.469421,387.340942 341.585602,376.017120 
	C341.824921,352.689850 341.734283,329.359131 341.776978,306.029846 
	C341.779114,304.863464 341.718109,303.695648 341.757050,302.530884 
	C341.823700,300.537354 341.636536,298.042816 344.471954,298.111938 
	C347.148621,298.177185 347.258453,300.592407 347.231201,302.624725 
	C346.790985,335.449158 351.572540,368.111420 350.276581,400.961517 
	C350.105927,405.287445 349.971130,409.614746 349.720764,414.377380 
z"/>
</svg>